# xmcd
#
# Track frame offsets: 
#        150
#        14664
#        22991
#        34432
#        45610
#        58850
#        72802
#        83755
#        95795
#        107835
#        120138
#        132853
#        145793
#        158096
#        170623
#        179213
#        189116
#        196356
#        206708
#
# Disc length: 2883 seconds
#
# Revision: 0
# Processed by: cddbd v1.5.2PL0 Copyright (c) Steve Scherf et al.
# Submitted via: ExactAudioCopy v0.99pb5
#
DISCID=0e0b4113
DTITLE=Rusty Rogers - Rusty Rogers Remembers the Down Homers [CD 1 of 
DTITLE=2)
DYEAR=2004
DGENRE=Western
TTITLE0=All Through the Years - Shorty Cook and Trio
TTITLE1=Blue Shadows on the Trail - Trio
TTITLE2=In My Arms - Trio
TTITLE3=We Won't Say Goodbye - Shorty Cook
TTITLE4=There's Nothin' Clickin' Chicken - Rusty Rogers
TTITLE5=White Waterfall - Trio
TTITLE6=Yodel Polka - Kenny Roberts
TTITLE7=Hillbilly Style - Kenny Roberts
TTITLE8=Counting Tears - Bill Stallard
TTITLE9=I Wasted a Nickel - Bill Stallard
TTITLE10=San Antonio Polka - Rusty Rogers
TTITLE11=Square Dance Polka - Rusty Rogers
TTITLE12=Yodel Polka - Rusty Rogers
TTITLE13=Holiday Cruise - Trio
TTITLE14=Fiddle Tune - Slim Coxx
TTITLE15=I Got a Girl in the Mountains - Rusty Rogers
TTITLE16=Sailor's Hompipe - Slim Coxx
TTITLE17=Slew Foot Jane - Trio
TTITLE18=Far Out on the Mountains - Trio
EXTD=
EXTT0=
EXTT1=
EXTT2=
EXTT3=
EXTT4=
EXTT5=
EXTT6=
EXTT7=
EXTT8=
EXTT9=
EXTT10=
EXTT11=
EXTT12=
EXTT13=
EXTT14=
EXTT15=
EXTT16=
EXTT17=
EXTT18=
PLAYORDER=
